<svg
>
    <path
        d="M6.32843 20L5.62132 20.7071L5.91421 21L6.32843 21L6.32843 20ZM11.9853 20L11.9853 21H11.9853V20ZM17.6421 21C18.1944 21 18.6421 20.5523 18.6421 20C18.6421 19.4477 18.1944 19 17.6421 19V21ZM17.6421 14.3431L18.3492 15.0503L18.3492 15.0503L17.6421 14.3431ZM3.5 14.3431L4.20711 15.0503L3.5 14.3431ZM20.4706 8.68629L19.7635 9.3934L19.7635 9.3934L20.4706 8.68629ZM20.4706 11.5147L19.7635 10.8076L19.7635 10.8076L20.4706 11.5147ZM16.2279 4.44365L16.935 3.73654L16.935 3.73654L16.2279 4.44365ZM13.3995 4.44365L12.6924 3.73654L12.6924 3.73654L13.3995 4.44365ZM15.5208 5.15076L19.7635 9.3934L21.1777 7.97919L16.935 3.73654L15.5208 5.15076ZM7.03553 19.2929L4.20711 16.4645L2.79289 17.8787L5.62132 20.7071L7.03553 19.2929ZM11.9853 19L6.32843 19L6.32843 21L11.9853 21L11.9853 19ZM11.9853 21H17.6421V19H11.9853V21ZM4.20711 15.0503L11.2782 7.97918L9.86396 6.56497L2.79289 13.636L4.20711 15.0503ZM11.2782 7.97918L14.1066 5.15076L12.6924 3.73654L9.86396 6.56497L11.2782 7.97918ZM19.7635 10.8076L16.935 13.636L18.3492 15.0503L21.1777 12.2218L19.7635 10.8076ZM16.935 13.636L11.2782 19.2929L12.6924 20.7071L18.3492 15.0503L16.935 13.636ZM9.86396 7.97918L16.935 15.0503L18.3492 13.636L11.2782 6.56497L9.86396 7.97918ZM4.20711 16.4645C3.81658 16.0739 3.81658 15.4408 4.20711 15.0503L2.79289 13.636C1.62132 14.8076 1.62132 16.7071 2.79289 17.8787L4.20711 16.4645ZM19.7635 9.3934C20.154 9.78392 20.154 10.4171 19.7635 10.8076L21.1777 12.2218C22.3492 11.0503 22.3492 9.15076 21.1777 7.97918L19.7635 9.3934ZM16.935 3.73654C15.7635 2.56497 13.864 2.56497 12.6924 3.73654L14.1066 5.15076C14.4971 4.76023 15.1303 4.76023 15.5208 5.15076L16.935 3.73654Z"
    ></path>
</svg>
