<svg
    fill="none"
>
    <path
        d="M18 13V14H19H19.1479C19.6705 14 20.1049 14.4023 20.145 14.9233L20.9201 25L3.07988 25L3.85501 14.9233C3.89508 14.4023 4.32953 14 4.85206 14H5H6V13V11.0002C6 10.4467 6.44716 10.0001 6.99837 10.0001H6.9984L17.0017 10.0001H17.0017C17.5529 10.0001 18 10.4467 18 11.0001V13Z"
    ></path>
    <path
        d="M8 9C8 9.55228 8.44772 10 9 10H15C15.5523 10 16 9.55228 16 9V3.43961C16 2.80856 15.4227 2.33527 14.8039 2.45903L8.80389 3.65903C8.33646 3.75251 8 4.16293 8 4.63961V9Z"
    ></path>
    <path
        d="M17 13V15H7V13H17Z"
    ></path>
</svg>
