<?xml version="1.0" encoding="utf-8"?>
<!-- Uploaded to: SVG Repo, www.svgrepo.com, Generator: SVG Repo Mixer Tools -->
<svg width="800px" height="800px" viewBox="0 0 24 24" fill="none" xmlns="http://www.w3.org/2000/svg">
    <path
        d="M21 20L16 20L8 20L7 20C5.11438 20 4.17157 20 3.58579 19.4142C3 18.8284 3 17.8856 3 16L3 9C3 7.89543 3.89543 7 5 7V7"
        stroke="#323232" stroke-width="2" stroke-linejoin="round" />
    <path
        d="M9.91501 10.8429C9.35081 11.3884 9 12.1532 9 12.9999C9 14.6568 10.3431 15.9999 12 15.9999C13.0435 15.9999 13.9625 15.4672 14.5 14.6588"
        stroke="#323232" stroke-width="2" />
    <path d="M3 5L21 20" stroke="#323232" stroke-width="2" stroke-linecap="round" stroke-linejoin="round" />
    <path
        d="M21 16L21 9.60555C21 9.04256 21 8.76107 20.9437 8.52887C20.7673 7.801 20.199 7.2327 19.4711 7.05628C19.2389 7 18.9574 7 18.3944 7V7C18.079 7 17.9213 7 17.7739 6.9779C17.3177 6.90952 16.8991 6.6855 16.5891 6.34382C16.4889 6.23342 16.4015 6.1022 16.2265 5.83975L16 5.5C15.6036 4.90544 15.4054 4.60816 15.1345 4.40367C14.9691 4.27879 14.7852 4.18039 14.5895 4.112C14.2691 4 13.9118 4 13.1972 4L9.90139 4C9.33825 4 8.81237 4.28144 8.5 4.75V4.75L8.25 5.125"
        stroke="#323232" stroke-width="2" stroke-linecap="round" stroke-linejoin="round" />
</svg>