<svg width="183" height="50" viewBox="0 0 183 50" fill="none" xmlns="http://www.w3.org/2000/svg">
    <path d="M89 1H0v49h89V1Z" fill="#EEE"></path>
    <path d="M89 1H0v49h89V1Z" fill="url(#_301050800__a)"></path>
    <path
        d="M125.39 50H89V1h36.39c.4 0 .78.12 1.11.34l9.43 6.3c4.93 3.3 10.74 5.06 16.67 5.06h8.4c1.1 0 2 .9 2 2v21.6c0 1.1-.9 2-2 2h-8.4a29.96 29.96 0 0 0-16.67 5.06l-9.43 6.3c-.32.22-.71.34-1.11.34Z"
        fill="#EEE"></path>
    <path
        d="M125.39 50H89V1h36.39c.4 0 .78.12 1.11.34l9.43 6.3c4.93 3.3 10.74 5.06 16.67 5.06h8.4c1.1 0 2 .9 2 2v21.6c0 1.1-.9 2-2 2h-8.4a29.96 29.96 0 0 0-16.67 5.06l-9.43 6.3c-.32.22-.71.34-1.11.34Z"
        fill="url(#_301050800__b)"></path>
    <path d="M176.25 15c.45 0 .84.3.96.73l5.43 19c.18.64-.3 1.27-.96 1.27H163V15h13.25Z" fill="#eeff00"></path>
    <path d="M176.849 15.83v.003l5.43 18.998v.001a.623.623 0 0 1-.599.793h-18.305v-20.25h12.875c.28 0 .524.186.599.456Z"
        stroke="#000" stroke-opacity=".1" stroke-width=".75"></path>
    <path d="M89 45H0v3h89v-3Z" fill="#D9D9D9"></path>
    <path
        d="M115.07 9c4.42 0 8.65 1.83 11.67 5.06 5.77 6.15 5.77 15.73 0 21.89a15.98 15.98 0 0 1-11.67 5.06H95V25c0-8.84 7.16-16 16-16h4.07Z"
        fill="url(#_301050800__c)" fill-opacity=".5"></path>
    <path fill-rule="evenodd" clip-rule="evenodd"
        d="M89 48h35.42c.38 0 .75-.11 1.07-.31l10.67-6.74c4.8-3.03 10.36-4.64 16.03-4.64H161c1.1 0 2-.9 2-2v1c0 1.1-.9 2-2 2h-8.4a29.96 29.96 0 0 0-16.67 5.06l-9.43 6.3c-.33.22-.72.34-1.11.34H89V48Zm36.39-48Z"
        fill="#C9C9C9" fill-opacity=".5"></path>
    <path d="M95 1h-6v49h6V1Z" fill="#eeff00"></path>
    <path d="M89.375 49.625V1.375h5.25v48.25h-5.25Z" stroke="#000" stroke-opacity=".1" stroke-width=".75"></path>
    <path d="m29 28.44 2.82-6.74 6.96 2.91-.9-3.21 4.83-4.4L56 22.14l-2.64 6.81-6.48-2.51.97 3.46-4.93 4.35L29 28.44Z"
        fill="url(#_301050800__d)"></path>
    <path
        d="m39.141 24.509-.837-2.988 4.487-4.088 12.724 4.921-2.37 6.11-6.13-2.374-.698-.27.202.721.906 3.234-4.577 4.038-13.357-5.575 2.53-6.047 6.614 2.765.715.299-.209-.746Z"
        stroke="url(#_301050800__e)" stroke-opacity=".07" stroke-width=".75"></path>
    <defs>
        <linearGradient id="_301050800__a" x1="44.5" y1="1" x2="44.5" y2="55.5" gradientUnits="userSpaceOnUse">
            <stop stop-color="#fff" stop-opacity="0"></stop>
            <stop offset=".245" stop-color="#fff"></stop>
            <stop offset="1" stop-color="#C4C4C4"></stop>
        </linearGradient>
        <linearGradient id="_301050800__b" x1="126" y1="50" x2="126" y2="1" gradientUnits="userSpaceOnUse">
            <stop stop-color="#C4C4C4"></stop>
            <stop offset=".725" stop-color="#fff"></stop>
            <stop offset="1" stop-color="#fff" stop-opacity="0"></stop>
        </linearGradient>
        <linearGradient id="_301050800__d" x1="41.15" y1="24.778" x2="32.65" y2="21.278" gradientUnits="userSpaceOnUse">
            <stop offset=".177" stop-color="#eeff00"></stop>
            <stop offset="1" stop-color="#eeff00" stop-opacity="0"></stop>
        </linearGradient>
        <linearGradient id="_301050800__e" x1="56" y1="26" x2="29" y2="26" gradientUnits="userSpaceOnUse">
            <stop></stop>
            <stop offset="1" stop-opacity="0"></stop>
        </linearGradient>
        <radialGradient id="_301050800__c" cx="0" cy="0" r="1" gradientUnits="userSpaceOnUse"
            gradientTransform="matrix(-47 0 0 -32 129.001 41)">
            <stop stop-color="#fff"></stop>
            <stop offset="1" stop-color="#fff" stop-opacity="0"></stop>
        </radialGradient>
    </defs>
</svg>