<svg width="184" height="49" fill="none" xmlns="http://www.w3.org/2000/svg">
    <path d="M161.96 35.07h-.5v-21h.5c11.5 0 21.5 4.7 21.5 10.5s-10 10.5-21.5 10.5z" fill="#eb2d2d" />
    <path
        d="M161.85 34.695h-.015v-20.25h.125c5.704 0 11.022 1.166 14.9 3.038 3.907 1.885 6.225 4.416 6.225 7.087 0 2.671-2.318 5.202-6.225 7.087-3.878 1.872-9.196 3.038-14.9 3.038h-.11z"
        stroke="#000" stroke-opacity=".1" stroke-width=".75" />
    <path d="M89 0H0v49h89V0z" fill="#EEE" />
    <path d="M89 0H0v49h89V0z" fill="url(#prefix___2344601345__a)" fill-opacity=".08" />
    <path d="M89 44H0v3h89v-3z" fill="#D9D9D9" />
    <path d="M95 0h-6v49h6V0z" fill="#eb2d2d" />
    <path d="M89.375 48.625V.375h5.25v48.25h-5.25z" stroke="#000" stroke-opacity=".1" stroke-width=".75" />
    <path d="M124 49H95V0h29a2 2 0 012 2v45a2 2 0 01-2 2z" fill="#EEE" />
    <path d="M124 49H95V0h29a2 2 0 012 2v45a2 2 0 01-2 2z" fill="url(#prefix___2344601345__b)" />
    <path d="M126 47c.35 0 26-10 26-10V11.5L126 2v45z" fill="#EEE" />
    <path d="M126 47c.35 0 26-10 26-10V11.5L126 2v45z" fill="url(#prefix___2344601345__c)" />
    <path d="M163 13.4V35c0 1.1-.9 2-2 2h-9V11.4h9a2 2 0 012 2z" fill="#EEE" />
    <path d="M163 13.4V35c0 1.1-.9 2-2 2h-9V11.4h9a2 2 0 012 2z" fill="url(#prefix___2344601345__d)" />
    <path d="M163 13.4V35c0 1.1-.9 2-2 2V11.4a2 2 0 012 2z" fill="#EEE" />
    <path d="M126 44H95v3h31v-3z" fill="#D9D9D9" />
    <path d="M126 46l26-10v-1l-26 10v1zm35-11h-9v1h9v-1z" fill="#C9C9C9" fill-opacity=".5" />
    <path
        d="M29.38 22.98c0-.47-.2.47 0 0l2.25-3.29 7.24 3.25-.91-3.25a3.694 3.694 0 014.89-4.44l10.88 4.21c1.91.74 2.85 2.88 2.11 4.78a3.697 3.697 0 01-4.78 2.11l-4-1.55.98 3.5c.38 1.36-.05 2.83-1.11 3.77a3.681 3.681 0 01-3.87.64L28 26l1.38-3.02z"
        fill="url(#prefix___2344601345__e)" />
    <path
        d="M46.699 24.901l.98 3.5a3.338 3.338 0 01-.998 3.388 3.306 3.306 0 01-3.472.577L28.5 25.812l1.186-2.596a1.53 1.53 0 00.025-.054l2.052-3.001 6.954 3.121.731.328-.216-.771-.91-3.25a3.318 3.318 0 014.393-3.99l10.88 4.21a3.313 3.313 0 011.897 4.295A3.322 3.322 0 0151.196 26l-4-1.55-.7-.271.203.721zm-17.06-1.811l-.259-.11h.266a.34.34 0 01.018.074l-.004.006a.325.325 0 01-.022.03zm.027.003z"
        stroke="url(#prefix___2344601345__f)" stroke-opacity=".07" stroke-width=".75" />
    <defs>
        <linearGradient id="prefix___2344601345__a" x1="44.5" y1="0" x2="44.5" y2="54.5" gradientUnits="userSpaceOnUse">
            <stop stop-color="#fff" stop-opacity="0" />
            <stop offset=".245" stop-color="#fff" />
            <stop offset="1" stop-color="#C4C4C4" />
        </linearGradient>
        <linearGradient id="prefix___2344601345__b" x1="110.5" y1="49" x2="110.5" y2="0" gradientUnits="userSpaceOnUse">
            <stop stop-color="#C4C4C4" />
            <stop offset=".725" stop-color="#fff" />
            <stop offset="1" stop-color="#fff" stop-opacity="0" />
        </linearGradient>
        <linearGradient id="prefix___2344601345__c" x1="134.358" y1="53.324" x2="141.358" y2="2.324"
            gradientUnits="userSpaceOnUse">
            <stop stop-color="#C4C4C4" />
            <stop offset=".748" stop-color="#fff" />
            <stop offset=".889" stop-color="#fff" stop-opacity="0" />
        </linearGradient>
        <linearGradient id="prefix___2344601345__d" x1="157.5" y1="43.5" x2="157.5" y2="11"
            gradientUnits="userSpaceOnUse">
            <stop stop-color="#C4C4C4" />
            <stop offset=".777" stop-color="#fff" />
            <stop offset="1" stop-color="#fff" stop-opacity="0" />
        </linearGradient>
        <linearGradient id="prefix___2344601345__e" x1="40.383" y1="22.496" x2="29.883" y2="17.496"
            gradientUnits="userSpaceOnUse">
            <stop offset=".209" stop-color="#eb2d2d" />
            <stop offset=".632" stop-color="#eb2d2d" stop-opacity="0" />
        </linearGradient>
        <linearGradient id="prefix___2344601345__f" x1="55" y1="23.5" x2="29.5" y2="24" gradientUnits="userSpaceOnUse">
            <stop />
            <stop offset="1" stop-opacity="0" />
        </linearGradient>
    </defs>
</svg>